PathFileType	4	(X/Y/Z)	C:/Users/opensim2020/Desktop/walking_exp_matlab/subject03_walking15_straight_02.trc																																																																																																																																											
DataRate	CameraRate	NumFrames	NumMarkers	Units	OrigDataRate	OrigDataStartFrame	OrigNumFrames																																																																																																																																							
100	100	8	47	mm	100	1140	149																																																																																																																																							
Frame#	Time	LFHD			RFHD			LBHD			RBHD			C7			T10			CLAV			STRN			RBAK			LSHO			LUPA			LELB			LFRM			LWRA			LWRB			LFIN			RSHO			RUPA			RELB			RFRM			RWRA			RWRB			RFIN			LASI			RASI			LPSI			RPSI			LTHI			LKNE			LTIB			LANK			LHEE			LTOE			RTHI			RKNE			RTIB			RANK			RHEE			RTOE			*39			*40			*41			*42			*43			*44			*45			*46		
		X1	Y1	Z1	X2	Y2	Z2	X3	Y3	Z3	X4	Y4	Z4	X5	Y5	Z5	X6	Y6	Z6	X7	Y7	Z7	X8	Y8	Z8	X9	Y9	Z9	X10	Y10	Z10	X11	Y11	Z11	X12	Y12	Z12	X13	Y13	Z13	X14	Y14	Z14	X15	Y15	Z15	X16	Y16	Z16	X17	Y17	Z17	X18	Y18	Z18	X19	Y19	Z19	X20	Y20	Z20	X21	Y21	Z21	X22	Y22	Z22	X23	Y23	Z23	X24	Y24	Z24	X25	Y25	Z25	X26	Y26	Z26	X27	Y27	Z27	X28	Y28	Z28	X29	Y29	Z29	X30	Y30	Z30	X31	Y31	Z31	X32	Y32	Z32	X33	Y33	Z33	X34	Y34	Z34	X35	Y35	Z35	X36	Y36	Z36	X37	Y37	Z37	X38	Y38	Z38	X39	Y39	Z39	X40	Y40	Z40	X41	Y41	Z41	X42	Y42	Z42	X43	Y43	Z43	X44	Y44	Z44	X45	Y45	Z45	X46	Y46	Z46	X47	Y47	Z47
																																																																																																																																														
56	0.55	-252.06558	1608.9198	908.32458	-252.66582	1626.43005	1040.09912	-381.69019	1571.48511	916.16711	-377.33557	1587.86401	1045.79688	-414.69278	1415.71509	979.01343	-452.12622	1103.04443	982.50403	-292.82547	1340.73193	991.43445	-248.95206	1175.95886	990.39716	-474.93152	1242.14978	1074.82996	-325.14789	1375.85364	831.63361	-322.9809	1179.21716	758.40918	-312.33994	1056.39551	745.97223	-291.98749	927.32172	744.89978	-290.66895	805.92902	769.58752	-295.87039	817.15137	714.09607	-285.36224	733.91833	718.73145	-352.73306	1367.41064	1146.46631	-359.82303	1146.16516	1223.21716	-344.88919	1033.89246	1236.10083	-326.07159	898.22205	1237.77502	-293.72116	803.65558	1202.75134	-325.23343	797.47876	1245.96912	-298.03928	728.01038	1235.66858	-278.4754	944.91858	872.1073	-291.3262	936.98572	1108.34363	-443.24481	964.22345	914.40472	-449.00101	962.47797	1063.7489	-319.68054	639.47235	829.74597	-312.14603	464.08597	872.94122	-381.27713	274.41144	870.92969	-423.93091	69.45482	916.41785	-468.55042	37.88833	951.88281	-275.14014	29.69683	944.52887	-286.64041	638.05914	1145.57483	-220.86282	470.65738	1121.69067	-335.25684	317.36737	1120.33057	-466.73621	147.48781	1075.11914	-521.98975	141.31311	1022.18634	-370.60071	46.38148	1059.05579	-334.46356	1679.54163	946.99969	NaN	NaN	NaN	NaN	NaN	NaN	NaN	NaN	NaN	NaN	NaN	NaN	NaN	NaN	NaN	NaN	NaN	NaN	NaN	NaN	NaN
57	0.56	-238.62898	1609.62793	908.86096	-239.08347	1626.54846	1040.68982	-368.21207	1572.51282	916.59045	-363.88739	1588.38135	1046.29199	-401.43497	1416.26099	978.84796	-438.41913	1103.47632	981.56744	-279.64337	1341.29529	991.46167	-235.41095	1176.63989	990.13861	-462.01965	1242.40186	1073.65332	-311.50888	1376.83765	831.76099	-306.68646	1180.70496	757.87781	-292.7475	1058.19336	745.59448	-268.14932	929.78912	745.63373	-261.78275	809.12909	771.16089	-268.12036	819.43988	715.86578	-252.5051	737.69727	720.87219	-340.27106	1367.51367	1146.25281	-349.56882	1146.30457	1222.44727	-335.95947	1033.76831	1235.35071	-319.57227	897.78754	1237.09985	-288.41638	802.85876	1202.57678	-320.61264	796.9845	1245.47534	-295.08496	726.82428	1235.14978	-265.25504	944.85779	871.32788	-277.68207	937.76361	1107.74768	-429.59909	964.90961	914.07477	-435.3566	963.2229	1063.28577	-312.07559	639.45813	830.10187	-308.69513	463.83789	873.01453	-379.55292	275.12793	871.12152	-423.6618	70.20383	916.42737	-468.41235	39.02279	951.97357	-274.93161	29.77331	944.34015	-268.75238	640.10492	1145.31287	-200.35056	473.96579	1119.91333	-307.01843	314.29254	1118.49658	-428.04648	136.72302	1072.79333	-482.49713	126.91982	1019.61371	-324.85474	43.12134	1057.10059	-319.94138	1680.02075	948.43726	NaN	NaN	NaN	NaN	NaN	NaN	NaN	NaN	NaN	NaN	NaN	NaN	NaN	NaN	NaN	NaN	NaN	NaN	NaN	NaN	NaN
58	0.57	-224.90154	1609.79785	909.4895	-225.53172	1626.42554	1041.34717	-354.75034	1573.172	917.07227	-350.40033	1588.60193	1046.73071	-388.10266	1416.49243	978.70917	-424.84482	1103.67175	980.76581	-266.43378	1341.57886	991.52588	-221.8868	1177.03955	989.9021	-449.07092	1242.33411	1072.42786	-297.98245	1377.49548	831.8678	-290.6051	1182.00928	757.20172	-273.51633	1059.7572	745.12714	-244.29108	932.34387	746.28363	-233.30952	812.37512	773.04608	-240.11507	821.9104	717.80182	-219.85905	741.72913	723.25183	-327.76813	1367.3728	1146.07922	-339.27856	1146.02075	1221.75916	-326.95001	1033.37512	1234.59753	-312.94717	897.08862	1236.48438	-283.96512	801.15027	1202.00562	-315.88147	796.31866	1245.00488	-291.87827	725.4436	1234.7113	-252.14297	944.59692	870.81097	-263.94336	938.06171	1107.27222	-416.03455	965.31482	913.87933	-421.716	963.55872	1062.86438	-304.63193	639.39301	830.40521	-305.19299	463.75751	873.00317	-378.03128	275.90268	871.21796	-423.40604	71.0077	916.46783	-468.03854	40.09253	952.35034	-274.80121	29.65012	944.3017	-251.3905	641.93927	1144.8905	-180.61649	476.96106	1118.35449	-278.879	311.04648	1116.86072	-388.3782	126.02929	1070.62085	-442.25095	112.82061	1016.99854	-278.72131	40.45609	1055.61011	NaN	NaN	NaN	NaN	NaN	NaN	NaN	NaN	NaN	NaN	NaN	NaN	NaN	NaN	NaN	NaN	NaN	NaN	NaN	NaN	NaN	NaN	NaN	NaN
59	0.58	-211.41641	1609.98621	910.07422	-211.98062	1626.09351	1042.04883	-341.1716	1573.43201	917.47864	-336.93304	1588.5354	1047.20813	-374.83191	1416.4458	978.74591	-411.20877	1103.59241	980.08911	-253.16109	1341.53308	991.59271	-208.38774	1177.17371	989.67511	-436.073	1241.99255	1071.2251	-284.51068	1377.83521	831.95599	-274.43228	1182.94324	756.69611	-254.28445	1061.23389	744.56317	-220.46617	934.9989	746.87396	-205.03294	815.84924	775.0199	-212.0854	824.49792	719.82056	-187.52672	745.9176	725.94922	-315.25388	1366.84412	1145.94885	-328.85651	1145.44629	1221.06567	-317.83627	1032.70886	1233.87622	-306.22754	896.1803	1235.89478	-278.87573	799.66461	1201.51416	-311.00443	795.44928	1244.51941	-288.50055	723.97156	1234.2948	-238.74663	944.10706	870.05908	-250.09193	938.05804	1106.73462	-402.77063	965.55072	913.82739	-408.08905	963.57629	1062.54529	-297.04965	639.30176	830.62604	-301.74619	463.66721	872.92798	-376.58838	276.75024	871.32379	-423.22263	71.95693	916.54224	-467.80331	41.17007	952.36841	-274.67188	29.56379	944.12787	-234.76056	643.42688	1144.44678	-161.61035	479.47946	1116.80896	-250.7583	307.57968	1115.51086	-347.81055	115.77463	1069.03064	-400.24597	98.60503	1015.56696	-232.37195	38.41209	1054.46533	-291.08551	1679.76709	952.08545	NaN	NaN	NaN	NaN	NaN	NaN	NaN	NaN	NaN	NaN	NaN	NaN	NaN	NaN	NaN	NaN	NaN	NaN	NaN	NaN	NaN
60	0.59	-197.71147	1609.74304	910.7879	-198.46393	1625.47351	1042.72083	-327.77713	1573.60718	917.96216	-323.46646	1588.16321	1047.74915	-361.42917	1416.09656	978.43958	-397.59909	1103.1936	979.505	-239.82123	1341.21069	991.58099	-194.82135	1176.94885	989.43951	-422.97449	1241.349	1070.09497	-271.03976	1377.92285	832.06824	-258.34186	1183.60461	756.16425	-235.34644	1062.46643	743.88318	-196.67221	937.69061	747.41248	-175.36804	820.01282	776.90607	-184.03285	827.26184	721.93427	-155.60036	750.09558	729.06293	-302.60089	1366.17236	1145.91748	-318.34818	1144.5437	1220.49768	-308.64255	1031.75989	1233.15002	-299.27615	895.04968	1235.32471	-273.54449	797.9585	1201.20898	-305.92963	794.43811	1244.05432	-284.94656	722.37878	1233.85754	-225.60135	943.25195	869.41211	-236.09798	937.92102	1106.12378	-389.38388	965.35596	913.7594	-394.36868	963.28674	1062.36719	-289.40915	639.05627	831.02393	-298.2706	463.53952	872.92761	-375.0368	277.62091	871.44745	-422.90997	72.80707	916.59241	-467.50873	42.20313	952.69092	-274.72974	29.49454	943.92719	-217.40253	644.79474	1145.02466	-143.27686	481.46429	1115.20447	-222.62224	304.12283	1114.60388	-306.30331	105.95065	1067.6554	-357.45193	85.32705	1014.1969	-185.58293	37.66895	1053.59509	-278.36691	1681.63733	951.68176	NaN	NaN	NaN	NaN	NaN	NaN	NaN	NaN	NaN	NaN	NaN	NaN	NaN	NaN	NaN	NaN	NaN	NaN	NaN	NaN	NaN
61	0.6	-184.31218	1609.42029	911.35242	-184.92093	1624.63721	1043.44641	-314.1871	1573.31653	918.39465	-310.00046	1587.51367	1048.23486	-348.03537	1415.46509	978.33386	-383.91437	1102.47852	979.06744	-226.4828	1340.64648	991.67188	-181.18935	1176.39636	989.22943	-409.78995	1240.3783	1069.07227	-257.50549	1377.56702	832.18164	-242.08148	1184.02905	755.6972	-216.53519	1063.49585	743.23651	-172.87305	940.44122	747.93622	-146.21951	824.10822	779.27563	-156.04819	830.1864	724.1864	-124.06172	754.60693	732.17926	-289.84009	1365.13989	1145.88184	-307.62009	1143.50378	1219.82056	-299.26593	1030.57349	1232.49377	-292.24319	893.75616	1234.6853	-268.01456	796.1684	1200.84497	-300.65323	793.19501	1243.55591	-281.13019	720.74915	1233.38611	-212.49159	942.30438	868.67706	-221.93221	937.51062	1105.5188	-376.19839	964.86487	913.86926	-380.52087	962.69165	1062.2627	-281.75528	638.55402	831.25275	-294.63986	463.35785	872.86572	-373.43314	278.47226	871.59052	-422.66718	73.72428	916.63153	-467.37677	43.65547	952.90222	-274.63834	29.35458	943.92999	-200.96533	645.71539	1145.22949	-125.74295	482.98807	1114.146	-194.72865	300.79645	1113.97302	-264.53967	97.25024	1066.79089	-314.37085	73.23294	1013.35162	-139.02895	38.32191	1053.29651	-264.13455	1680.40955	953.04932	NaN	NaN	NaN	NaN	NaN	NaN	NaN	NaN	NaN	NaN	NaN	NaN	NaN	NaN	NaN	NaN	NaN	NaN	NaN	NaN	NaN
62	0.61	-170.56212	1608.57947	912.15118	-171.40536	1623.55493	1044.1261	-300.52869	1572.6698	918.81256	-296.56113	1586.53711	1048.77612	-334.58185	1414.5553	978.27338	-370.16995	1101.42578	978.74188	-213.03313	1339.77283	991.73962	-167.59102	1175.56995	988.96826	-396.53122	1239.14087	1068.19153	-243.96785	1376.97925	832.29211	-225.84143	1184.18762	755.26587	-197.69966	1064.32019	742.59235	-149.35233	943.17438	748.50482	-117.30778	828.72968	781.52191	-128.16071	833.28516	726.54468	-92.95477	759.23901	735.53436	-277.03909	1363.91992	1145.86108	-296.75342	1142.16907	1219.26575	-289.77026	1029.13611	1231.83582	-284.99899	892.20721	1234.06348	-262.30634	794.20807	1200.41895	-295.11758	791.85358	1243.02502	-277.00067	718.81439	1233.02698	-199.56747	940.98175	867.86694	-207.59125	936.83917	1104.94409	-362.98837	964.03174	914.10754	-366.64648	961.86133	1062.35559	-274.05945	638.07782	831.58221	-290.73639	463.12299	872.77435	-371.59229	279.40015	871.72803	-422.52045	74.81451	916.59448	-467.28262	44.97635	952.91119	-274.52286	29.00624	944.23206	-184.60442	645.94891	1145.98169	-108.81501	483.86975	1113.34375	-167.07921	297.69455	1113.52368	-222.44002	89.72763	1066.39343	-270.18793	62.40251	1012.64185	-93.18305	39.19927	1053.32605	-248.82391	1679.23938	956.55334	NaN	NaN	NaN	NaN	NaN	NaN	NaN	NaN	NaN	NaN	NaN	NaN	NaN	NaN	NaN	NaN	NaN	NaN	NaN	NaN	NaN
63	0.62	-156.96547	1607.73633	912.81238	-157.92676	1622.25049	1044.85437	-287.06738	1571.90796	919.33575	-283.0863	1585.35754	1049.29517	-321.10135	1413.35193	978.46143	-356.44043	1100.15552	978.59485	-199.51465	1338.65527	991.79089	-153.81633	1174.50073	988.66193	-383.05322	1237.58936	1067.49109	-230.44826	1376.15002	832.43915	-209.36131	1184.19678	754.883	-178.81657	1065.00806	742.00983	-125.86702	945.79767	749.34186	-88.62132	833.68585	783.79358	-100.44624	836.56787	729.00531	-62.27883	764.03534	739.08771	-263.98163	1362.35291	1145.86133	-285.74429	1140.6676	1218.75549	-280.05847	1027.51672	1231.18054	-277.49002	890.53009	1233.44421	-256.36697	792.08624	1199.98914	-289.38257	790.35913	1242.45557	-272.68033	717.03827	1232.57019	-186.78862	939.34613	866.99811	-193.05075	935.94373	1104.28613	-349.77405	962.91132	914.42566	-352.66052	961.00031	1062.43262	-265.87558	637.36694	832.19696	-286.42059	462.73889	872.78235	-369.59415	280.22409	871.91217	-422.04953	75.80322	916.87781	-466.80167	46.12392	953.32172	-274.37885	28.90345	944.24109	-168.68481	646.21405	1146.23413	-92.3517	484.21478	1112.61584	-139.7607	294.99808	1113.30493	-180.04546	83.3526	1066.42688	-225.59892	53.36142	1012.30542	-47.59329	40.35409	1053.46301	-236.37878	1679.59509	955.69788	NaN	NaN	NaN	NaN	NaN	NaN	NaN	NaN	NaN	NaN	NaN	NaN	NaN	NaN	NaN	NaN	NaN	NaN	NaN	NaN	NaN
